<svg width="871" height="131" viewBox="0 0 871 131" fill="none" xmlns="http://www.w3.org/2000/svg">
<g clip-path="url(#clip0_3_11)">
<rect width="871" height="131" fill="white"/>
<path d="M224.352 98.322C222.976 98.322 221.772 97.9207 220.74 97.118C219.708 96.3153 219.192 94.5953 219.192 91.958C219.192 90.754 219.622 88.8333 220.482 86.196C221.342 83.5587 222.489 80.4627 223.922 76.908C225.413 73.296 227.075 69.4833 228.91 65.47C230.745 61.4567 232.665 57.472 234.672 53.516C236.679 49.56 238.628 45.8907 240.52 42.508C242.412 39.1253 244.161 36.2587 245.766 33.908C247.429 31.5 248.776 29.8947 249.808 29.092C251.299 28.0027 252.789 27.458 254.28 27.458C255.083 27.458 255.857 27.544 256.602 27.716C257.405 27.888 258.064 28.1747 258.58 28.576C259.784 29.3213 260.845 30.7547 261.762 32.876C262.737 34.94 263.597 37.434 264.342 40.358C265.145 43.282 265.804 46.4353 266.32 49.818C266.893 53.1433 267.381 56.44 267.782 59.708C269.961 59.4213 271.451 59.278 272.254 59.278C273.974 59.278 275.493 59.536 276.812 60.052C278.131 60.5107 278.819 61.4853 278.876 62.976C278.991 64.4093 278.532 65.6133 277.5 66.588C276.525 67.5627 275.264 68.2793 273.716 68.738C273.028 68.9673 271.365 69.34 268.728 69.856C268.9 72.78 268.986 75.2453 268.986 77.252C268.986 82.3547 268.699 86.3107 268.126 89.12C267.61 91.9293 266.922 93.936 266.062 95.14C265.259 96.344 264.399 97.0607 263.482 97.29C262.622 97.5767 261.848 97.72 261.16 97.72C261.103 97.72 261.045 97.72 260.988 97.72C259.325 97.72 258.093 97.29 257.29 96.43C256.545 95.57 256.172 94.1367 256.172 92.13V86.024C256.172 84.132 256.143 82.0107 256.086 79.66C256.029 77.3093 255.914 74.8153 255.742 72.178C252.359 72.7513 248.977 73.3247 245.594 73.898C242.269 74.414 239.402 74.8727 236.994 75.274C235.905 77.854 234.959 80.176 234.156 82.24C233.353 84.2467 232.809 85.8233 232.522 86.97C231.662 89.7793 230.859 91.9867 230.114 93.592C229.369 95.14 228.652 96.2293 227.964 96.86C227.333 97.548 226.731 97.9493 226.158 98.064C225.585 98.236 224.983 98.322 224.352 98.322ZM241.724 64.696C244.132 64.1227 246.454 63.6067 248.69 63.148C250.926 62.632 253.047 62.1733 255.054 61.772C254.767 58.2173 254.423 54.7487 254.022 51.366C253.621 47.9833 253.162 44.9733 252.646 42.336C251.155 45.2027 249.407 48.6427 247.4 52.656C245.451 56.612 243.559 60.6253 241.724 64.696ZM322.201 99.87C320.883 99.87 319.679 99.3253 318.589 98.236C317.557 97.204 317.041 95.4553 317.041 92.99C317.041 91.1553 317.185 88.604 317.471 85.336C317.815 82.0107 318.446 77.7393 319.363 72.522C317.357 76.65 315.264 80.3193 313.085 83.53C310.907 86.7407 308.757 89.2633 306.635 91.098C304.571 92.8753 302.593 93.764 300.701 93.764C297.663 93.764 295.255 92.8467 293.477 91.012C291.7 89.12 290.811 85.594 290.811 80.434C290.811 77.9687 291.012 75.188 291.413 72.092C291.872 68.996 292.445 65.9 293.133 62.804C293.821 59.708 294.509 56.956 295.197 54.548C295.943 52.0827 296.602 50.248 297.175 49.044C297.634 48.012 298.207 47.2093 298.895 46.636C299.641 46.0627 300.587 45.776 301.733 45.776C303.568 45.776 304.973 46.378 305.947 47.582C306.922 48.786 307.409 50.0187 307.409 51.28C307.409 52.2547 307.18 53.6593 306.721 55.494C306.32 57.3287 305.804 59.364 305.173 61.6C304.6 63.836 303.998 66.1293 303.367 68.48C302.737 70.8307 302.192 73.038 301.733 75.102C301.332 77.166 301.131 78.9147 301.131 80.348C301.131 82.1253 301.819 83.014 303.195 83.014C303.998 83.014 305.03 82.24 306.291 80.692C307.61 79.144 308.986 77.08 310.419 74.5C311.91 71.8627 313.401 68.996 314.891 65.9C316.439 62.7467 317.844 59.5647 319.105 56.354C320.424 53.086 321.542 50.076 322.459 47.324C323.033 45.604 323.807 44.4 324.781 43.712C325.756 43.024 326.874 42.68 328.135 42.68C330.085 42.68 331.575 43.2247 332.607 44.314C333.697 45.4033 334.241 46.9513 334.241 48.958C334.241 49.8753 334.098 51.4233 333.811 53.602C333.525 55.7807 333.152 58.332 332.693 61.256C332.292 64.18 331.805 67.276 331.231 70.544C330.658 73.812 330.085 77.0227 329.511 80.176C328.995 83.3293 328.479 86.2247 327.963 88.862C327.447 91.442 327.017 93.506 326.673 95.054C326.1 97.3473 325.412 98.7233 324.609 99.182C323.807 99.6407 323.004 99.87 322.201 99.87ZM408.198 52.656C408.198 53.344 407.968 53.946 407.51 54.462C407.051 54.978 406.478 55.3793 405.79 55.666C404.815 56.0673 403.124 56.5833 400.716 57.214C398.308 57.8447 395.384 58.5613 391.944 59.364C388.561 60.1667 384.92 60.998 381.022 61.858C377.123 62.6607 373.224 63.4347 369.326 64.18C367.835 69.684 366.316 75.36 364.768 81.208C363.22 86.9987 361.672 92.7033 360.124 98.322C359.55 100.329 358.862 101.848 358.06 102.88C357.257 103.969 355.881 104.514 353.932 104.514C351.81 104.514 350.377 103.826 349.632 102.45C348.944 101.131 348.858 99.3253 349.374 97.032C350.864 90.7827 352.24 84.9633 353.502 79.574C354.82 74.1847 355.881 69.8273 356.684 66.502C353.244 67.0753 350.234 67.534 347.654 67.878C345.074 68.1647 343.239 68.2793 342.15 68.222C340.946 68.1073 339.942 67.62 339.14 66.76C338.337 65.9 337.964 64.8393 338.022 63.578C338.136 62.4313 338.652 61.4567 339.57 60.654C340.487 59.794 341.576 59.278 342.838 59.106C344.615 58.934 346.908 58.676 349.718 58.332C352.527 57.988 355.623 57.5867 359.006 57.128C359.751 54.204 360.611 51.194 361.586 48.098C362.56 44.9447 363.564 41.9347 364.596 39.068C365.685 36.144 366.717 33.5927 367.692 31.414C368.666 29.2353 369.555 27.6587 370.358 26.684C370.988 25.9387 371.762 25.3653 372.68 24.964C373.654 24.5627 374.6 24.362 375.518 24.362C376.722 24.362 377.696 24.792 378.442 25.652C379.187 26.512 379.56 27.5153 379.56 28.662C379.56 29.1207 379.531 29.608 379.474 30.124C379.416 30.5827 379.302 31.0413 379.13 31.5C378.04 34.3667 376.865 37.8353 375.604 41.906C374.4 45.9767 373.138 50.4487 371.82 55.322C376.12 54.6913 380.334 54.0607 384.462 53.43C388.647 52.742 392.431 52.1113 395.814 51.538C399.254 50.9073 402.006 50.3627 404.07 49.904C405.216 49.5027 406.191 49.5887 406.994 50.162C407.797 50.678 408.198 51.5093 408.198 52.656ZM409.547 98.838C405.476 98.838 402.208 97.4047 399.743 94.538C397.278 91.614 396.045 87.7153 396.045 82.842C396.045 81.294 396.246 79.7173 396.647 78.112C397.106 76.5067 397.65 75.016 398.281 73.64C397.937 73.124 397.65 72.4647 397.421 71.662C397.249 70.802 397.163 69.7987 397.163 68.652C397.163 64.9253 397.822 61.514 399.141 58.418C400.46 55.2647 402.237 52.5413 404.473 50.248C406.709 47.9547 409.174 46.1773 411.869 44.916C414.564 43.6547 417.287 43.024 420.039 43.024C424.74 43.024 428.582 44.6007 431.563 47.754C434.602 50.9073 436.121 55.8093 436.121 62.46C436.121 65.7853 435.605 69.168 434.573 72.608C433.541 76.048 432.136 79.3447 430.359 82.498C428.639 85.594 426.632 88.3747 424.339 90.84C422.103 93.3053 419.695 95.2547 417.115 96.688C414.592 98.1213 412.07 98.838 409.547 98.838ZM408.171 69.77C408.458 70.4007 408.601 71.146 408.601 72.006C408.601 72.866 408.429 73.7547 408.085 74.672C407.741 75.5893 407.397 76.822 407.053 78.37C406.709 79.8607 406.537 82.0107 406.537 84.82C406.537 85.5653 406.623 86.196 406.795 86.712C407.024 87.1707 407.512 87.4 408.257 87.4C410.206 87.4 412.041 86.7693 413.761 85.508C415.538 84.2467 417.115 82.584 418.491 80.52C419.924 78.456 421.128 76.1627 422.103 73.64C423.135 71.06 423.909 68.4513 424.425 65.814C424.998 63.1193 425.285 60.6253 425.285 58.332C425.285 56.8413 424.998 55.8093 424.425 55.236C423.852 54.6627 422.848 54.376 421.415 54.376C419.466 54.376 417.459 55.0067 415.395 56.268C413.388 57.472 411.697 59.1347 410.321 61.256C408.945 63.32 408.257 65.6707 408.257 68.308C408.257 68.824 408.228 69.3113 408.171 69.77ZM457.481 50.076C454.729 50.076 452.779 49.7893 451.633 49.216C450.486 48.6427 449.798 47.9547 449.569 47.152C449.339 46.3493 449.225 45.6613 449.225 45.088C449.225 45.0307 449.225 45.002 449.225 45.002C449.225 43.7407 449.798 42.5367 450.945 41.39C452.091 40.186 453.697 39.3547 455.761 38.896C457.481 38.552 459.516 38.208 461.867 37.864C464.275 37.4627 466.797 37.1187 469.435 36.832C472.129 36.488 474.709 36.23 477.175 36.058C479.64 35.886 481.819 35.8 483.711 35.8C486.233 35.8 488.183 36.1727 489.559 36.918C490.935 37.606 491.881 38.4087 492.397 39.326C492.97 40.2433 493.257 41.0173 493.257 41.648C493.257 42.2213 493.113 42.7947 492.827 43.368C492.54 43.9413 491.823 44.5147 490.677 45.088C489.587 45.6613 487.839 46.206 485.431 46.722C483.023 47.238 479.697 47.7253 475.455 48.184C475.053 48.2413 474.623 48.2987 474.165 48.356C473.763 50.8213 473.276 53.774 472.703 57.214C472.129 60.5967 471.499 64.1513 470.811 67.878C470.18 71.5473 469.549 75.0733 468.919 78.456C468.345 81.7813 467.829 84.6193 467.371 86.97C469.721 86.7407 471.785 86.5687 473.563 86.454C475.397 86.3393 476.63 86.282 477.261 86.282C479.267 86.282 480.643 86.712 481.389 87.572C482.134 88.3747 482.507 89.4353 482.507 90.754C482.507 91.27 481.589 92.0727 479.755 93.162C477.92 94.2513 475.369 95.4267 472.101 96.688C468.89 97.9493 465.192 99.0673 461.007 100.042C458.255 100.673 455.531 101.16 452.837 101.504C450.142 101.848 448.193 102.02 446.989 102.02C444.638 102.02 443.119 101.59 442.431 100.73C441.8 99.87 441.485 98.7807 441.485 97.462C441.485 96.3153 441.829 95.14 442.517 93.936C443.262 92.732 444.294 91.872 445.613 91.356C446.989 90.84 448.508 90.3527 450.171 89.894C451.833 89.4353 453.553 89.034 455.331 88.69C455.445 87.1993 455.675 85.2213 456.019 82.756C456.363 80.2907 456.735 77.596 457.137 74.672C457.595 71.6907 458.054 68.6807 458.513 65.642C459.029 62.546 459.516 59.6507 459.975 56.956C460.491 54.204 460.921 51.8247 461.265 49.818C459.602 49.99 458.341 50.076 457.481 50.076ZM504.84 96C503.464 96 502.088 95.5413 500.712 94.624C499.394 93.6493 498.304 92.2733 497.444 90.496C496.584 88.6613 496.154 86.454 496.154 83.874C496.154 80.434 496.613 76.7647 497.53 72.866C498.505 68.9673 499.68 65.0687 501.056 61.17C502.432 57.2713 503.78 53.602 505.098 50.162C505.729 48.4993 506.503 47.3813 507.42 46.808C508.338 46.1773 509.542 45.862 511.032 45.862C514.415 45.862 516.106 47.5533 516.106 50.936C516.106 51.5093 515.848 52.6273 515.332 54.29C514.816 55.8953 514.128 57.8733 513.268 60.224C512.466 62.5747 511.606 65.126 510.688 67.878C509.828 70.5727 509.026 73.3247 508.28 76.134C507.592 78.886 507.048 81.4947 506.646 83.96C507.965 81.9533 509.427 79.4593 511.032 76.478C512.695 73.4393 514.444 70.2573 516.278 66.932C518.17 63.6067 520.062 60.5107 521.954 57.644C523.846 54.72 525.71 52.3407 527.544 50.506C529.379 48.6713 531.128 47.754 532.79 47.754C534.224 47.754 535.571 48.0407 536.832 48.614C538.151 49.13 539.298 50.162 540.272 51.71C541.247 53.2007 541.992 55.3507 542.508 58.16C543.082 60.9693 543.368 64.6673 543.368 69.254C543.368 71.5473 543.569 73.7833 543.97 75.962C544.429 78.0833 545.174 79.8607 546.206 81.294C547.238 82.67 548.7 83.358 550.592 83.358C553.86 83.358 556.784 82.756 559.364 81.552C561.944 80.348 564.209 78.9433 566.158 77.338C568.108 75.7327 569.742 74.328 571.06 73.124C571.863 72.3213 572.551 71.6907 573.124 71.232C573.755 70.7733 574.271 70.544 574.672 70.544C575.876 70.544 576.736 70.8593 577.252 71.49C577.826 72.1207 578.112 72.9807 578.112 74.07C578.112 74.6433 577.625 75.704 576.65 77.252C575.676 78.8 574.3 80.5773 572.522 82.584C570.802 84.5333 568.824 86.4253 566.588 88.26C564.352 90.0947 561.944 91.614 559.364 92.818C556.784 94.022 554.147 94.624 551.452 94.624C546.923 94.624 543.168 93.8213 540.186 92.216C537.262 90.5533 535.084 87.8013 533.65 83.96C532.217 80.0613 531.5 74.758 531.5 68.05C531.5 67.878 531.5 67.5913 531.5 67.19C531.5 65.4127 531.472 63.836 531.414 62.46C531.414 61.084 531.328 59.966 531.156 59.106C530.182 60.8833 529.006 63.0047 527.63 65.47C526.312 67.9353 524.878 70.5727 523.33 73.382C521.782 76.134 520.177 78.8573 518.514 81.552C516.852 84.1893 515.189 86.5973 513.526 88.776C511.921 90.9547 510.373 92.7033 508.882 94.022C507.392 95.3407 506.044 96 504.84 96ZM579.061 100.386C576.596 100.386 574.847 100.042 573.815 99.354C572.84 98.666 572.353 97.6627 572.353 96.344C572.353 95.1973 572.754 94.2227 573.557 93.42C574.36 92.56 576.137 91.7 578.889 90.84C582.1 89.8653 585.138 88.7473 588.005 87.486C590.929 86.1673 593.308 84.734 595.143 83.186C597.035 81.638 597.981 80.004 597.981 78.284C597.981 77.1373 597.58 76.306 596.777 75.79C596.032 75.274 595.143 75.016 594.111 75.016C593.251 75.016 591.99 75.1593 590.327 75.446C588.722 75.6753 586.944 75.9907 584.995 76.392C583.046 76.736 581.154 77.0513 579.319 77.338C577.542 77.5673 576.022 77.682 574.761 77.682C571.78 77.682 569.572 77.0227 568.139 75.704C566.706 74.328 565.989 72.5793 565.989 70.458C565.989 69.3113 566.591 67.7347 567.795 65.728C568.999 63.7213 570.604 61.514 572.611 59.106C574.618 56.698 576.854 54.29 579.319 51.882C581.784 49.474 584.278 47.2667 586.801 45.26C589.381 43.196 591.818 41.562 594.111 40.358C596.404 39.0967 598.354 38.466 599.959 38.466C601.794 38.466 603.256 39.0393 604.345 40.186C605.492 41.3327 606.065 42.8807 606.065 44.83C606.065 45.7473 605.979 46.7507 605.807 47.84C605.635 48.872 605.205 49.818 604.517 50.678C603.829 51.4807 602.768 52.054 601.335 52.398C599.902 52.742 597.952 52.6847 595.487 52.226C593.538 53.6593 591.502 55.236 589.381 56.956C587.317 58.6187 585.368 60.3673 583.533 62.202C581.698 63.9793 580.179 65.728 578.975 67.448C581.096 66.76 583.504 66.2153 586.199 65.814C588.894 65.3553 591.617 65.126 594.369 65.126C597.694 65.126 600.389 65.728 602.453 66.932C604.574 68.0787 606.122 69.6267 607.097 71.576C608.129 73.5253 608.645 75.6753 608.645 78.026C608.645 80.6633 607.785 83.3007 606.065 85.938C604.345 88.5753 602.052 90.9833 599.185 93.162C596.318 95.3407 593.136 97.0893 589.639 98.408C586.142 99.7267 582.616 100.386 579.061 100.386ZM622.832 97.29C621.226 97.29 619.793 96.7453 618.532 95.656C617.328 94.5667 616.726 92.7893 616.726 90.324C616.726 89.0053 616.898 87.142 617.242 84.734C617.643 82.326 618.159 79.7173 618.79 76.908C619.42 74.0413 620.108 71.2033 620.854 68.394C621.656 65.5847 622.43 63.0907 623.176 60.912C623.921 58.676 624.58 57.0133 625.154 55.924C625.899 54.6053 626.587 53.8027 627.218 53.516C627.906 53.172 628.565 53 629.196 53C630.342 53 631.403 53.344 632.378 54.032C633.41 54.72 633.926 56.2393 633.926 58.59C633.926 59.5073 633.754 60.998 633.41 63.062C633.066 65.0687 632.636 67.4193 632.12 70.114C631.604 72.8087 631.03 75.5893 630.4 78.456C629.826 81.3227 629.253 84.046 628.68 86.626C628.164 89.1487 627.734 91.27 627.39 92.99C627.103 94.4233 626.501 95.484 625.584 96.172C624.724 96.9173 623.806 97.29 622.832 97.29ZM632.722 44.486C630.83 44.486 629.081 43.9413 627.476 42.852C625.87 41.7053 625.068 39.9567 625.068 37.606C625.068 35.6567 625.555 34.08 626.53 32.876C627.504 31.672 628.651 30.812 629.97 30.296C631.346 29.7227 632.55 29.436 633.582 29.436C634.614 29.436 635.76 29.6653 637.022 30.124C638.283 30.5253 639.372 31.2993 640.29 32.446C641.264 33.5353 641.752 35.112 641.752 37.176C641.752 38.552 641.264 39.8133 640.29 40.96C639.315 42.0493 638.111 42.9093 636.678 43.54C635.302 44.1707 633.983 44.486 632.722 44.486ZM652.079 120.768C647.779 120.768 644.511 120.453 642.275 119.822C640.096 119.191 638.606 118.36 637.803 117.328C637 116.353 636.599 115.35 636.599 114.318C636.599 112.885 637.058 111.709 637.975 110.792C638.95 109.875 640.211 109.416 641.759 109.416C642.791 109.416 644.282 109.559 646.231 109.846C648.18 110.133 650.13 110.276 652.079 110.276C657.812 110.276 662.542 108.9 666.269 106.148C669.996 103.453 672.92 99.354 675.041 93.85C677.162 88.2887 678.624 81.294 679.427 72.866C675.471 79.3447 671.085 84.5333 666.269 88.432C661.51 92.3307 656.551 94.28 651.391 94.28C645.314 94.28 642.275 91.2987 642.275 85.336C642.275 82.4693 643.049 79.4593 644.597 76.306C646.145 73.1527 648.209 70.028 650.789 66.932C653.369 63.836 656.207 60.912 659.303 58.16C662.399 55.3507 665.495 52.8853 668.591 50.764C671.744 48.6427 674.668 46.98 677.363 45.776C680.058 44.5147 682.236 43.884 683.899 43.884C685.218 43.884 686.364 44.1133 687.339 44.572C688.371 45.0307 689.174 45.948 689.747 47.324C690.32 48.6427 690.607 50.592 690.607 53.172C690.607 60.3387 690.349 67.276 689.833 73.984C689.317 80.6347 688.314 86.798 686.823 92.474C685.332 98.15 683.154 103.109 680.287 107.352C677.478 111.595 673.78 114.891 669.193 117.242C664.606 119.593 658.902 120.768 652.079 120.768ZM653.283 83.616C653.283 84.0173 653.455 84.218 653.799 84.218C654.946 84.218 656.494 83.616 658.443 82.412C660.392 81.1507 662.485 79.488 664.721 77.424C667.014 75.3027 669.25 72.952 671.429 70.372C673.608 67.7347 675.528 65.0113 677.191 62.202C678.911 59.3927 680.144 56.6693 680.889 54.032C677.908 55.752 674.812 57.7587 671.601 60.052C668.448 62.288 665.466 64.696 662.657 67.276C659.905 69.856 657.64 72.5507 655.863 75.36C654.143 78.112 653.283 80.864 653.283 83.616ZM711.541 102.708C708.904 102.708 707.012 101.963 705.865 100.472C704.719 98.9813 704.145 96.8027 704.145 93.936C704.145 91.2987 704.633 87.8587 705.607 83.616C706.639 79.316 707.987 74.5287 709.649 69.254C711.369 63.922 713.29 58.4467 715.411 52.828C717.533 47.152 719.74 41.5907 722.033 36.144C724.327 30.64 726.563 25.5947 728.741 21.008C729.773 19.0013 730.863 17.6253 732.009 16.88C733.156 16.1347 734.417 15.762 735.793 15.762C737.112 15.762 738.23 16.1347 739.147 16.88C740.065 17.568 740.523 18.686 740.523 20.234C740.523 20.578 740.065 21.8967 739.147 24.19C738.23 26.426 737.026 29.35 735.535 32.962C734.045 36.5167 732.411 40.53 730.633 45.002C728.856 49.4167 727.079 54.032 725.301 58.848C723.524 63.6067 721.919 68.308 720.485 72.952C719.052 77.596 717.905 81.896 717.045 85.852C719.052 83.1573 721.202 80.176 723.495 76.908C725.846 73.5827 728.225 70.286 730.633 67.018C733.099 63.6927 735.507 60.654 737.857 57.902C740.265 55.15 742.501 52.9427 744.565 51.28C746.629 49.6173 748.435 48.786 749.983 48.786C752.85 48.786 755.143 49.5887 756.863 51.194C758.641 52.742 759.529 55.4367 759.529 59.278C759.529 61.0553 759.185 63.2053 758.497 65.728C757.809 68.1933 756.978 70.802 756.003 73.554C755.086 76.2487 754.283 78.8573 753.595 81.38C752.907 83.9027 752.563 86.11 752.563 88.002C752.563 89.034 753.051 89.55 754.025 89.55C756.835 89.55 759.673 88.948 762.539 87.744C765.463 86.54 768.244 85.0493 770.881 83.272C773.576 81.4373 776.013 79.6313 778.191 77.854C780.427 76.0193 782.233 74.5 783.609 73.296C784.584 72.3787 785.473 71.7767 786.275 71.49C787.078 71.146 787.823 70.974 788.511 70.974C790.862 70.974 792.037 72.1493 792.037 74.5C792.037 74.9587 791.951 75.532 791.779 76.22C791.607 76.8507 791.063 77.6533 790.145 78.628C789.228 79.6027 787.852 80.9787 786.017 82.756C784.183 84.5333 782.033 86.4253 779.567 88.432C777.159 90.4387 774.522 92.3593 771.655 94.194C768.846 95.9713 765.951 97.4333 762.969 98.58C759.988 99.7267 757.093 100.3 754.283 100.3C750.041 100.3 746.773 99.096 744.479 96.688C742.186 94.3373 741.039 91.1267 741.039 87.056C741.039 84.2467 741.613 80.7207 742.759 76.478C743.906 72.178 745.196 67.792 746.629 63.32C744.623 65.2693 742.53 67.5913 740.351 70.286C738.173 72.9233 735.965 75.7327 733.729 78.714C731.493 81.638 729.286 84.5333 727.107 87.4C724.986 90.2093 722.951 92.7893 721.001 95.14C719.052 97.4333 717.275 99.268 715.669 100.644C714.064 102.02 712.688 102.708 711.541 102.708ZM847.184 52.656C847.184 53.344 846.955 53.946 846.496 54.462C846.037 54.978 845.464 55.3793 844.776 55.666C843.801 56.0673 842.11 56.5833 839.702 57.214C837.294 57.8447 834.37 58.5613 830.93 59.364C827.547 60.1667 823.907 60.998 820.008 61.858C816.109 62.6607 812.211 63.4347 808.312 64.18C806.821 69.684 805.302 75.36 803.754 81.208C802.206 86.9987 800.658 92.7033 799.11 98.322C798.537 100.329 797.849 101.848 797.046 102.88C796.243 103.969 794.867 104.514 792.918 104.514C790.797 104.514 789.363 103.826 788.618 102.45C787.93 101.131 787.844 99.3253 788.36 97.032C789.851 90.7827 791.227 84.9633 792.488 79.574C793.807 74.1847 794.867 69.8273 795.67 66.502C792.23 67.0753 789.22 67.534 786.64 67.878C784.06 68.1647 782.225 68.2793 781.136 68.222C779.932 68.1073 778.929 67.62 778.126 66.76C777.323 65.9 776.951 64.8393 777.008 63.578C777.123 62.4313 777.639 61.4567 778.556 60.654C779.473 59.794 780.563 59.278 781.824 59.106C783.601 58.934 785.895 58.676 788.704 58.332C791.513 57.988 794.609 57.5867 797.992 57.128C798.737 54.204 799.597 51.194 800.572 48.098C801.547 44.9447 802.55 41.9347 803.582 39.068C804.671 36.144 805.703 33.5927 806.678 31.414C807.653 29.2353 808.541 27.6587 809.344 26.684C809.975 25.9387 810.749 25.3653 811.666 24.964C812.641 24.5627 813.587 24.362 814.504 24.362C815.708 24.362 816.683 24.792 817.428 25.652C818.173 26.512 818.546 27.5153 818.546 28.662C818.546 29.1207 818.517 29.608 818.46 30.124C818.403 30.5827 818.288 31.0413 818.116 31.5C817.027 34.3667 815.851 37.8353 814.59 41.906C813.386 45.9767 812.125 50.4487 810.806 55.322C815.106 54.6913 819.32 54.0607 823.448 53.43C827.633 52.742 831.417 52.1113 834.8 51.538C838.24 50.9073 840.992 50.3627 843.056 49.904C844.203 49.5027 845.177 49.5887 845.98 50.162C846.783 50.678 847.184 51.5093 847.184 52.656Z" fill="black"/>
<path fill-rule="evenodd" clip-rule="evenodd" d="M87.3043 98.8318C116.104 99.1985 144.754 100.632 173.854 98.9818C182.771 97.4652 191.438 93.7818 200.638 94.5652C201.838 93.5485 202.821 92.2652 201.004 87.4485L86.2043 87.7485L87.3043 98.8318Z" fill="white"/>
<path fill-rule="evenodd" clip-rule="evenodd" d="M71.2543 92.0318L74.5209 61.6152L88.0209 89.2485L113.888 89.0652C116.088 86.9652 115.188 83.4818 115.938 80.7318C116.221 75.1818 119.971 79.1318 120.304 82.2652C120.938 84.3985 121.021 86.6985 121.438 88.8985C140.321 88.4485 159.204 88.0318 178.104 87.9985C184.188 88.4818 190.204 87.3152 196.238 86.7818C197.504 83.3152 198.704 79.7652 197.954 76.0318C197.721 71.6985 197.621 67.3318 195.821 63.2985C194.571 60.0485 194.271 56.2485 191.354 53.9318C188.554 50.3152 184.054 48.5152 179.754 47.3652C174.238 45.8652 168.354 46.3985 162.671 45.9318C154.604 45.5818 146.754 43.4152 138.704 42.6985C127.738 42.0485 116.704 42.2485 105.721 41.9318C99.5376 41.9318 93.3043 41.4818 87.1376 41.7818L60.7209 47.4652C59.9209 50.8152 59.2876 51.1152 58.8709 47.5152C57.8543 44.9318 54.9876 46.7652 52.9209 46.7152C50.6876 47.3318 50.2709 42.7318 47.9543 43.7485C43.2876 44.7485 38.4043 45.0985 34.2043 47.5652C30.8376 48.8485 27.4043 50.5318 25.9876 54.0818C22.2543 60.7318 21.8209 68.6652 22.2376 76.1152C22.6709 82.0485 23.4543 88.2818 26.4209 93.5152C28.2043 97.3652 28.0376 93.1318 28.3876 91.0818C29.6376 81.7152 30.8709 72.3652 32.1209 62.9985C34.0876 70.7818 36.6543 78.4652 37.2543 86.5152C37.7043 89.9318 38.1376 93.3485 38.5876 96.7652C49.1209 98.9318 59.9043 99.4152 70.5543 100.732L71.2543 92.0318Z" fill="#B3C8E7"/>
<path fill-rule="evenodd" clip-rule="evenodd" d="M196.621 65.8152C195.604 67.4985 195.788 70.7485 194.004 71.3818C191.888 71.3985 189.671 71.5818 188.671 73.7485C185.821 76.7652 181.388 75.3152 177.804 74.7152C175.338 73.8318 175.171 77.8485 173.804 79.2818C171.988 82.1318 169.321 84.3318 166.188 85.5818C161.238 87.1318 156.154 87.8485 150.971 87.9485C144.754 88.2818 138.454 88.3485 132.254 88.2318C128.421 87.1818 124.588 85.6652 121.288 83.5318C119.071 80.9652 118.888 77.2818 116.604 74.7485C113.238 75.0818 110.154 76.7485 106.688 76.6652C104.271 77.4985 102.388 76.4318 100.704 74.7485C98.821 73.1485 96.1543 72.0652 96.0376 69.2485C94.7876 65.7985 94.321 61.8652 92.2876 58.8152C90.6376 57.1152 89.4543 54.7985 87.071 54.0318C86.5543 51.1652 83.521 53.9318 81.721 52.9152C79.1376 53.1485 76.6543 53.8985 74.0043 53.7652C71.5376 53.9818 69.2543 54.8152 66.7043 54.7152C60.8376 55.1985 54.8043 55.3485 49.071 53.8152C44.4876 55.0318 39.871 52.2318 35.3543 53.9818C32.7876 55.5152 31.721 53.0985 30.4376 51.2652C29.2043 48.4985 26.8876 52.2652 26.0876 53.6652C22.2876 60.5318 21.6876 68.5652 22.121 76.2485C22.3043 79.4818 22.7376 82.7485 23.2376 85.9152C24.421 89.1818 25.071 92.8485 27.5876 95.4318C27.221 91.9485 27.221 88.4985 28.3376 85.1318L32.8376 65.0152C35.7876 75.2652 36.621 85.9485 38.4376 96.4318C47.9543 98.9485 57.8543 99.1652 67.5543 100.465C70.521 101.582 71.471 100.065 71.3876 97.1985C72.421 92.7318 70.5543 88.2485 70.2043 83.7818C68.9376 77.3652 70.871 70.9152 71.8543 64.5985C73.6376 63.8818 75.5876 60.4652 77.1543 63.0985C80.221 65.2818 80.3876 69.4485 82.0043 72.6152C84.071 78.0985 85.471 83.8152 87.2543 89.3985C110.671 89.5318 134.071 88.7985 157.488 88.4152C169.788 88.1818 182.088 87.9485 194.388 87.9652C197.288 87.2652 196.971 83.6818 197.754 81.3652C198.321 77.5818 197.588 73.6652 197.471 69.8318L196.621 65.8152Z" fill="#86A2C9"/>
<path fill-rule="evenodd" clip-rule="evenodd" d="M178.371 50.5818L176.671 51.5152C176.804 52.2818 176.821 53.0818 177.121 53.8152C177.604 55.2818 178.121 56.7152 178.588 58.1818C178.854 59.7652 179.088 61.3485 179.371 62.9152C179.788 63.6318 180.138 64.3818 180.588 65.0818C180.938 65.5152 181.254 65.9985 181.621 66.3985C181.988 66.5485 182.354 66.7652 182.738 66.8818L185.988 66.0985C186.538 65.2818 187.138 64.4652 187.671 63.6318C187.838 62.7152 188.004 61.7818 188.171 60.8652C187.838 60.1818 187.454 59.5152 187.154 58.8318L186.538 56.7818C186.071 56.3818 185.571 56.0152 185.121 55.6152C184.771 54.9985 184.454 54.3652 184.071 53.7818L180.254 50.9485L178.371 50.5818Z" fill="#86A2C9"/>
<path fill-rule="evenodd" clip-rule="evenodd" d="M154.854 52.1152C152.988 51.5152 150.688 51.7652 149.338 50.1152C145.604 50.2485 141.888 50.0485 138.188 49.4985C135.571 49.5152 132.821 50.5152 130.354 49.2985C126.254 48.1152 121.738 50.1318 117.771 48.1152C115.754 47.4152 113.738 46.2318 111.721 45.8152C108.988 46.6652 106.454 48.4652 103.488 48.0985C101.371 47.8818 99.3876 48.3485 97.4376 49.1318C94.671 49.8485 91.8876 51.4485 88.9876 50.9985C85.871 50.3152 82.8043 49.0318 79.621 48.8985L59.1043 50.6652L62.021 45.4818C74.221 43.7318 86.421 41.8818 98.6376 40.1985C113.804 40.8485 128.971 41.3652 144.121 42.0818C149.138 43.3652 154.154 44.6818 159.238 45.6985L173.354 57.5818C173.388 59.1985 174.438 61.0152 173.154 62.3818C172.238 63.2985 172.088 65.7818 170.471 65.2152C166.071 64.7485 161.954 62.9652 157.754 61.6818C156.204 61.2318 155.438 60.0485 155.004 58.5652C154.138 56.6818 154.971 54.4652 154.854 52.4485L154.871 52.2152L154.854 52.1152Z" fill="#86A2C9"/>
<path fill-rule="evenodd" clip-rule="evenodd" d="M120.771 58.5318C120.938 60.5152 121.254 62.5985 120.338 64.4652C120.104 65.1152 119.804 65.7485 119.054 65.8985C118.388 66.1985 117.738 66.5318 116.988 66.5318C116.471 66.6152 115.971 66.6985 115.488 66.4318C114.421 66.0818 113.354 65.6485 112.271 65.3485L103.221 65.4318C101.804 63.4818 100.338 61.5652 98.9543 59.5818C98.4876 58.7818 98.071 57.9152 97.5543 57.1318L90.071 51.2818L100.354 58.1318C100.754 57.4818 101.271 56.8652 101.588 56.1818C101.571 55.5318 101.438 54.8652 101.488 54.2318L105.238 48.1818L120.771 58.5318Z" fill="#86A2C9"/>
<path fill-rule="evenodd" clip-rule="evenodd" d="M37.071 84.7985C37.0377 86.9818 37.071 89.1818 37.0043 91.3652C36.6877 93.4152 36.421 95.4652 36.0877 97.4985C35.571 98.9152 35.0377 100.315 34.521 101.732L33.0043 102.632C32.6377 102.399 32.171 102.265 31.8377 101.982C31.0877 100.015 30.3043 98.0652 29.571 96.0985C29.321 94.0818 29.0043 92.0652 28.8043 90.0485C28.821 87.8318 28.7877 85.6152 28.8543 83.3985L29.9543 75.2318L33.5877 72.2485C33.9377 72.5485 34.4377 72.7318 34.7043 73.1152C35.0543 74.0152 35.5043 74.8818 35.7877 75.7985C36.121 77.6485 36.4877 79.4818 36.6543 81.3652C36.8043 82.4985 36.9377 83.6485 37.071 84.7985Z" fill="#CCCCCC"/>
<path fill-rule="evenodd" clip-rule="evenodd" d="M83.2709 88.6818C83.4043 91.2652 83.5709 93.8485 83.6709 96.4318C83.1876 99.2985 82.5376 102.115 81.9376 104.949L80.4376 107.132H77.9376C77.0876 105.848 76.1876 104.582 75.3876 103.282C74.5209 99.7818 73.5876 96.2818 72.7543 92.7652C72.9209 89.2985 73.0543 85.8152 73.2376 82.3485C73.8043 80.0152 74.3876 77.6985 74.9543 75.3652C75.9543 74.8652 76.9543 74.2652 77.9709 73.8318C78.4376 73.8985 78.9876 73.8318 79.4209 73.9985C80.1543 75.0485 80.9709 76.0485 81.6543 77.1152C82.1876 80.9652 82.7376 84.8318 83.2709 88.6818Z" fill="#CCCCCC"/>
<path fill-rule="evenodd" clip-rule="evenodd" d="M126.371 92.6152C121.421 92.7318 116.454 93.2152 111.521 92.4985C109.854 91.6985 109.521 93.9152 107.854 93.3485C104.254 93.3652 100.704 92.5318 97.0876 92.8152C95.6043 92.3985 94.571 93.5818 93.171 93.5985C91.2376 93.3318 89.321 92.7818 87.4043 92.3985C85.821 93.2652 86.571 94.6985 86.971 96.0485C87.5543 97.1318 89.6376 96.3652 90.7876 96.7485C98.221 97.3485 105.688 96.8152 113.138 96.9485C115.121 96.5152 115.004 99.6318 116.788 99.9152C117.854 100.448 119.971 101.082 120.438 99.6152C121.238 98.5485 121.338 96.5318 123.021 96.6485C127.354 95.6318 131.854 96.1318 136.254 95.8652L172.438 95.0318C174.471 95.8818 176.971 96.2985 178.321 98.1485C178.471 99.5318 178.921 101.532 180.654 100.448C181.838 99.5985 183.404 98.9818 183.104 97.2485C182.804 95.2818 183.921 94.9485 185.638 95.2818C190.404 95.3818 195.171 95.4652 199.938 95.6485C201.121 94.5652 202.021 93.4818 200.321 92.3985C199.538 90.9818 198.421 90.3985 196.838 90.9652C192.988 91.3985 189.154 92.1318 185.271 91.6652C167.538 91.3652 149.804 92.1652 132.071 92.4818L126.371 92.6152Z" fill="#93948F"/>
<path fill-rule="evenodd" clip-rule="evenodd" d="M76.0376 83.2152C75.8543 83.8485 75.6043 84.4652 75.4376 85.0985C75.3543 85.9652 75.2376 86.8152 75.171 87.6652C75.221 88.9152 75.2543 90.1818 75.3043 91.4318C75.521 92.6318 75.7043 93.8485 75.9376 95.0652C76.271 95.6985 76.5543 96.3652 76.9043 96.9818L77.9043 98.1485L80.171 97.4152L82.0043 94.0152L82.0543 89.7152L78.671 89.4818C78.6043 88.6485 78.571 87.8152 78.4876 86.9818C78.021 85.7652 77.5376 84.5485 77.071 83.3318L76.0376 83.2152Z" fill="#93948F"/>
<path fill-rule="evenodd" clip-rule="evenodd" d="M31.071 81.0485C30.8043 82.3485 30.5376 83.6485 30.3376 84.9652C30.4043 86.5318 30.371 88.1152 30.3876 89.6818C30.621 90.5652 30.8376 91.4485 31.0876 92.3152C31.4876 92.9652 31.871 93.6152 32.271 94.2818C32.8043 94.5985 33.2043 95.1985 33.871 95.2652C34.521 95.1985 34.8043 94.4985 35.071 93.9652C35.3376 93.3652 35.5376 92.7485 35.671 92.0985L35.871 87.1818L32.821 86.5818C32.7043 85.3152 32.5876 84.0652 32.471 82.7985L31.071 81.0485Z" fill="#93948F"/>
<path fill-rule="evenodd" clip-rule="evenodd" d="M52.9043 37.1152C50.8043 38.0485 48.1043 39.5985 48.5377 42.2818C48.2877 43.9152 50.1877 44.6152 50.6877 46.0485C51.4877 47.5818 53.4543 47.7318 55.0043 47.3818C56.3377 47.5318 58.2877 45.8818 58.2877 48.0985C58.721 49.0818 58.8543 51.9652 60.1543 50.2485C60.471 48.7818 60.9377 47.4818 62.6543 47.4152C66.8377 46.1818 70.8543 44.2652 75.2377 43.9985C79.8377 43.4652 84.4377 42.6485 89.0377 42.2818C91.1377 42.3818 93.3043 43.0985 95.2543 41.9818C97.7877 40.6818 100.688 41.4485 103.404 41.2485C113.638 41.0652 123.854 42.0318 134.071 42.5152C141.738 42.7152 149.271 44.2818 156.804 45.5652C157.938 47.1652 159.154 45.2485 157.938 44.0652C155.904 39.5985 153.654 35.2152 151.288 30.8985C149.254 27.6485 147.921 23.8985 145.088 21.2318C142.671 19.1818 139.271 19.1985 136.254 18.9818C122.454 18.3652 108.621 17.7152 94.8043 18.1318C88.8877 18.1652 82.971 18.2652 77.0877 18.9152C72.9043 19.2652 68.6543 19.3985 64.5043 19.8652C62.021 20.5818 60.371 22.8318 59.9043 25.2985C58.6543 28.3818 59.271 31.7818 58.8377 35.0152C58.7543 36.4318 58.6877 37.8485 58.4877 39.2652C56.8543 38.4485 55.521 36.6152 53.5043 37.0985L52.8877 37.1152H52.9043Z" fill="#93948F"/>
<path d="M178.038 94.3985C177.788 95.7652 176.288 95.5318 175.321 95.2318C174.304 94.9985 173.271 94.7985 172.254 94.5818C172.004 95.9152 171.971 97.2985 171.504 98.5652C170.988 99.5485 169.104 98.1485 169.138 99.6985C169.088 100.648 169.021 101.782 169.821 102.432C170.838 104.298 171.321 106.415 172.521 108.182C173.354 109.465 174.371 110.882 175.988 111.148C178.504 111.548 181.054 111.815 183.604 111.648C185.854 111.515 188.138 110.582 189.454 108.682C191.388 105.915 191.988 102.532 192.688 99.2985L193.554 95.1652C190.438 94.9818 187.338 94.8652 184.221 94.7818C182.838 94.7485 182.271 96.1818 182.188 97.3318C182.204 98.6985 180.704 98.0818 180.071 98.4152C180.404 98.9485 181.104 100.798 179.854 100.198C178.971 98.9652 178.971 97.2818 179.171 95.8318C179.171 95.1652 179.588 93.3985 178.621 93.4652C178.354 93.7318 178.154 94.0485 178.038 94.3985Z" fill="black"/>
<path fill-rule="evenodd" clip-rule="evenodd" d="M138.538 66.8818C133.904 67.1652 129.271 67.5152 124.671 68.0652C122.621 68.0985 120.738 68.9652 118.804 69.5652C117.954 70.3318 116.888 70.9652 116.188 71.8152C115.954 72.8818 116.088 73.9985 116.588 74.9652C118.088 76.8985 119.454 78.9485 120.971 80.8485C122.438 82.1652 123.938 83.5152 125.754 84.3485C129.554 85.8485 133.604 86.5652 137.588 87.2985C143.088 87.6318 148.588 87.2985 154.071 86.9985C156.571 86.4318 159.138 86.0318 161.604 85.3485C163.721 84.3985 165.938 83.6152 167.988 82.5652C169.088 81.6818 170.271 80.8652 171.004 79.6318C172.338 77.9485 173.488 76.1485 174.671 74.3652C174.304 73.1485 174.088 71.8318 173.621 70.6652C172.888 69.9818 172.321 69.0152 171.238 68.8985C169.621 68.4152 168.038 67.7152 166.321 67.7652C159.554 67.2485 152.771 66.7985 145.988 66.4485C143.538 66.2152 141.088 66.7485 138.638 66.8818H138.538Z" fill="#CCCCCC"/>
<path fill-rule="evenodd" clip-rule="evenodd" d="M80.521 81.9652L82.0376 89.9818L78.5876 89.5818C78.5543 88.8652 78.5543 88.1485 78.5043 87.4318L76.671 81.3985L78.821 80.0152L80.521 81.9652Z" fill="white"/>
<path fill-rule="evenodd" clip-rule="evenodd" d="M34.6877 79.6485L35.6877 87.4818L32.571 86.8485C32.521 85.4318 32.471 84.0152 32.4043 82.6152C32.2043 81.5652 31.9877 80.5152 31.7877 79.4652L33.1543 78.5652L34.6877 79.6485Z" fill="white"/>
<path fill-rule="evenodd" clip-rule="evenodd" d="M114.321 90.1318L114.138 88.4485L114.388 87.7985L114.604 87.7318L115.788 79.7485C115.988 77.9485 117.354 77.8152 118.788 78.1652L120.604 83.2318L121.371 86.6485L121.221 90.1485L114.321 90.1318Z" fill="white"/>
<path fill-rule="evenodd" clip-rule="evenodd" d="M175.821 89.3818L175.288 87.8652L176.288 86.1318L176.421 84.0485L176.571 79.2152C176.221 76.3152 177.888 75.2152 179.888 76.2652L180.921 77.2652L181.654 78.6485L181.554 80.4985L182.221 82.2985L182.604 84.8152L182.704 86.9485L184.104 87.8318L184.738 89.2818L175.821 89.3818Z" fill="white"/>
<path d="M74.2209 61.3318C69.7543 64.7985 69.7209 70.9652 69.4876 76.1318C69.2709 82.6985 70.3543 89.1985 71.3376 95.6652C71.4376 97.7152 68.6209 101.349 72.4709 101.399C74.2043 104.215 74.6876 108.182 77.4876 110.565C79.9209 113.682 83.7543 114.015 87.4876 113.782C91.0043 114.015 92.3043 109.882 93.3709 107.232C94.1543 104.999 94.3709 102.632 94.7209 100.315C100.271 100.249 105.854 99.3152 111.388 100.299C112.438 100.549 113.854 100.349 114.704 100.882C115.721 103.915 117.821 107.599 121.521 107.249C124.738 106.915 129.054 107.282 131.021 104.182C131.688 100.599 137.054 103.699 139.721 102.732C142.804 102.215 148.188 104.232 148.988 99.9152C145.821 98.9152 142.221 99.6318 138.871 99.4818C135.138 99.4818 131.388 99.6152 127.654 99.2985C126.954 97.5818 127.988 94.7652 124.821 95.7818C120.471 94.2818 121.271 102.182 116.971 99.3318C115.254 98.4318 115.621 93.7818 113.338 95.7818C105.888 96.5652 98.3709 96.6318 90.8876 96.3818C86.0376 96.6818 88.5543 91.8152 88.6376 89.1818C85.2543 81.2152 83.6209 72.5818 79.9376 64.7152C78.8709 62.9652 76.6709 59.1318 74.2209 61.3318ZM80.6709 76.2652C82.6376 82.0818 83.3209 88.3152 83.4043 94.4318C83.1709 98.3318 82.3876 102.415 80.3043 105.765C76.8876 107.715 76.0043 101.249 75.0543 98.9818C73.2209 91.5318 73.2543 83.5485 75.3709 76.1485C76.5043 73.7485 79.8209 73.2485 80.6709 76.2652Z" fill="black"/>
<path d="M126.971 92.1652L172.104 90.6152L172.171 95.7818L127.038 97.3652L126.971 92.1652Z" fill="white"/>
<path fill-rule="evenodd" clip-rule="evenodd" d="M114.154 46.0152C109.871 44.9318 107.938 46.9985 105.421 48.2652C104.354 50.5485 102.854 52.6318 102.938 55.4318L102.871 58.3985L109.421 63.4985L114.671 63.8652C116.738 63.5652 118.621 62.4652 120.121 59.6485C121.254 57.9485 121.571 56.0152 121.454 53.9318C121.538 51.4818 120.388 49.7152 118.621 48.3152C117.421 47.2152 116.054 46.2818 114.154 46.0152Z" fill="white"/>
<path fill-rule="evenodd" clip-rule="evenodd" d="M172.221 60.4985L173.004 59.0818C173.788 54.8985 173.721 52.7985 173.388 50.6152C172.921 47.5152 171.838 46.8818 170.704 45.8652L167.321 44.3485L164.654 44.0152L159.171 45.5152L157.654 47.2985C156.721 48.5485 156.521 50.9652 156.254 52.4985L156.438 55.9652L164.238 63.2652C166.988 63.1985 169.821 62.8152 172.221 60.4985Z" fill="white"/>
<path fill-rule="evenodd" clip-rule="evenodd" d="M140.288 62.5152L141.838 64.2318L143.421 64.2818C143.821 64.0485 144.238 63.8152 144.638 63.5818L144.971 63.1318C144.854 62.7152 144.738 62.2985 144.604 61.8985L143.871 60.5818C143.538 60.4985 143.188 60.4318 142.838 60.3318L141.321 59.7652L140.171 60.5818C140.204 61.2318 140.254 61.8652 140.288 62.5152Z" fill="white"/>
<path fill-rule="evenodd" clip-rule="evenodd" d="M97.8876 73.9652L97.021 76.2818C97.1543 77.1652 97.521 78.0652 98.2543 78.6152C98.7043 78.9485 99.2043 79.2485 99.7043 79.4818L101.654 79.1818L102.671 77.7318L102.821 74.6985L101.388 73.0652L97.8876 73.9652Z" fill="white"/>
<path fill-rule="evenodd" clip-rule="evenodd" d="M191.354 71.7318L189.538 72.4318C189.454 73.4985 189.371 74.5485 189.304 75.6152L191.438 77.3818L194.804 76.1818L194.938 72.7318C194.221 72.0652 193.288 71.5318 192.271 71.5652C191.954 71.5818 191.654 71.6318 191.354 71.7318Z" fill="white"/>
<path fill-rule="evenodd" clip-rule="evenodd" d="M64.3543 22.5485C62.7043 24.9152 62.6043 27.9318 62.2543 30.7152C61.5876 35.2652 61.771 39.8818 61.5876 44.4652C63.271 43.8152 65.1876 43.4652 66.721 42.6485C67.4043 41.7985 67.4543 40.1652 68.6043 39.8985C71.171 39.2318 73.721 38.4485 76.4043 38.5152C79.8043 38.2318 83.2043 38.1318 86.6043 38.4318C90.5543 38.8318 94.521 38.3818 98.471 38.1818C99.0376 36.9485 100.271 36.9152 101.454 36.7818C104.154 36.4652 106.871 35.7985 109.571 35.6818C119.121 37.3652 128.654 39.1485 138.271 40.4152L153.754 42.6652L143.554 22.6152C140.171 19.9485 135.554 20.6152 131.504 20.4652C116.538 20.4152 101.554 20.2485 86.5876 20.2652L64.3543 22.5485Z" fill="white"/>
<path fill-rule="evenodd" clip-rule="evenodd" d="M131.938 67.4318C136.271 67.0985 140.588 66.7318 144.921 66.3818C151.904 66.7652 158.888 67.0485 165.854 67.4652C167.921 67.8818 170.071 68.1318 172.004 68.9985C172.804 69.6985 173.954 70.1152 174.288 71.2152C174.871 72.0152 174.838 72.9985 174.988 73.9152C174.604 74.6818 174.204 75.3652 173.654 74.3152C172.954 73.6318 172.404 72.7318 171.654 72.1318C170.071 71.7318 168.488 71.3818 166.854 71.4318C160.738 71.1818 154.621 70.8152 148.488 70.6318C143.971 70.7652 139.438 70.7818 134.921 70.9818C130.554 71.5152 126.154 71.9485 121.788 72.5318C120.421 73.0485 119.121 73.7652 117.954 74.6485C117.254 75.3152 116.721 75.3818 116.454 74.3485C115.921 73.7152 115.938 72.9985 116.188 72.2485C116.304 71.5152 117.188 71.2318 117.654 70.7152C118.688 70.0152 119.621 69.0818 120.938 68.9485C122.771 68.4485 124.604 67.9818 126.504 67.9152L131.938 67.4318Z" fill="white"/>
<path fill-rule="evenodd" clip-rule="evenodd" d="M172.421 51.2985L171.388 49.3318L169.121 47.7652L167.238 47.1152L165.721 46.8985L164.204 47.0985L162.171 48.2318L160.704 49.4985L160.238 50.8152L159.804 52.2985L159.604 53.2318L159.788 54.8985L160.438 56.5985L162.254 55.4818L163.971 55.7318L164.571 53.7985L168.054 53.9985L170.654 53.6985L172.854 53.9152L172.421 51.2985Z" fill="#B3B3B3"/>
<path fill-rule="evenodd" clip-rule="evenodd" d="M119.488 55.6818L119.121 52.7985L118.271 51.3485L117.204 50.2818L114.488 48.4985L112.771 48.1985L111.054 48.3152L109.604 48.7985L108.288 49.7818L106.821 51.7485L106.138 53.4652L105.988 56.2652L108.154 54.9818L108.571 56.4818L110.321 57.2152L110.688 55.4985L119.488 55.6818Z" fill="#B3B3B3"/>
<path d="M45.1376 45.8485C43.8209 45.9985 42.5209 46.2318 41.2376 46.5152C40.4376 46.7152 39.1376 47.0818 38.3043 47.2818C36.3876 47.6985 36.0043 49.1818 37.6543 49.4152C38.2876 49.5152 40.3376 49.3152 42.1709 48.9985C44.0543 48.7318 47.0376 48.4152 48.8543 48.2985L52.0876 48.1818L51.0209 46.9985C49.7876 45.6652 48.7376 45.4485 45.1376 45.8485Z" fill="black"/>
<path d="M27.6209 61.3652C26.0709 64.3318 25.5876 67.7485 25.3043 71.0485C25.0876 73.6985 26.0043 76.2652 25.9876 78.9152C26.0043 82.9485 26.8209 86.9152 27.2043 90.9152C27.5209 95.9652 28.4209 101.082 30.5209 105.698C31.2543 107.498 32.8876 108.915 34.9209 108.782C37.3543 108.865 39.8543 109.465 42.2543 108.848C43.8876 107.932 44.3543 105.882 45.0876 104.282C45.6376 102.482 46.6209 100.548 46.0876 98.6318C45.1043 97.4152 43.3209 97.3985 41.9043 96.9318L38.9543 96.2318C37.7043 85.9152 36.5043 75.4818 33.5043 65.4485C32.7876 63.5152 32.2043 60.9485 29.9876 60.2485C29.0376 60.0152 28.1043 60.5652 27.6209 61.3652ZM34.9709 74.8985C36.6043 79.6318 36.7209 84.7318 36.6376 89.6985C36.4376 93.2652 36.3209 97.0152 34.7043 100.248C34.1376 102.165 31.9043 102.282 31.4543 100.248C28.8376 94.0818 28.7376 87.0985 29.6709 80.5485C30.0376 77.8485 30.6209 74.7985 32.9876 73.1152C34.1543 72.4818 34.6376 74.1652 34.9709 74.8985Z" fill="black"/>
<path d="M163.221 89.4318C154.604 89.6318 128.604 90.0318 128.238 89.9818C127.871 89.9318 128.238 97.7652 128.638 98.3152C128.954 98.7485 139.338 98.7485 161.654 98.2985C170.704 98.1152 170.938 98.0985 171.071 96.7985C171.388 93.5818 171.321 89.2818 170.988 89.2818C170.738 89.2985 167.254 89.3318 163.221 89.4318Z" fill="black"/>
<path d="M55.9043 94.4652C55.7043 95.7985 57.4043 98.7152 57.6543 97.3818C57.821 96.2152 57.071 93.5985 56.4876 93.5152C56.2543 93.4818 55.971 93.9318 55.9043 94.4652Z" fill="black"/>
</g>
<defs>
<clipPath id="clip0_3_11">
<rect width="871" height="131" fill="white"/>
</clipPath>
</defs>
</svg>
